<svg width="30" height="26" viewBox="0 0 30 26" fill="none" xmlns="http://www.w3.org/2000/svg">
<path fill-rule="evenodd" clip-rule="evenodd" d="M0.920042 11.04L27.8134 0.546665C28.0667 0.453332 28.36 0.426665 28.6134 0.493332C29.36 0.666665 29.84 1.41333 29.6667 2.16L25.0267 24.08C24.9867 24.28 24.8934 24.4667 24.7734 24.64C24.3067 25.28 23.4 25.4267 22.76 24.9467L15.8267 19.8533L12.2934 23.4667C12.16 23.6 11.9867 23.7067 11.8134 23.76C11.1867 23.96 10.5334 23.6133 10.3334 23L7.82671 14.9067L1.00004 12.8933C0.706708 12.8133 0.466708 12.5867 0.346708 12.2933C0.160042 11.7867 0.413375 11.2267 0.920042 11.04ZM11.8667 16.48L24.4 5.4267C24.4534 5.3467 24.48 5.24004 24.44 5.1467C24.3867 4.97337 24.2134 4.8667 24.04 4.9067L9.34671 14.0534C9.0667 14.1867 8.92004 14.5067 9.01337 14.8134L10.8934 21.1734C10.9067 21.2134 10.9467 21.2534 10.9867 21.2667C11.0667 21.2934 11.1334 21.2534 11.16 21.1734L11.64 16.9067C11.6667 16.7467 11.7467 16.5867 11.8667 16.48Z" fill="#46A1C2"/>
</svg>
