<svg width="30" height="25" viewBox="0 0 30 25" fill="none" xmlns="http://www.w3.org/2000/svg">
<path d="M29.2267 2.84047C28.5733 3.12047 27.9066 3.34713 27.2133 3.52047C27.9867 2.7738 28.56 1.84047 28.88 0.813799C28.92 0.627132 28.8133 0.453799 28.6267 0.400466C28.5467 0.387132 28.4667 0.387132 28.3867 0.427132C27.4267 1.00047 26.3867 1.42713 25.2933 1.6938C25.2267 1.70713 25.16 1.70713 25.1066 1.6938C24.9067 1.6938 24.72 1.62713 24.56 1.4938C23.4 0.507132 21.9067 -0.0262011 20.3733 0.000465544C19.7067 0.0137989 19.0533 0.120466 18.4133 0.307132C16.3733 0.933799 14.7867 2.58713 14.2667 4.66713C14.08 5.42713 14.0267 6.2138 14.12 6.98713C14.1467 7.04047 14.1467 7.10713 14.12 7.16046C14.08 7.2138 14.0133 7.24047 13.9467 7.24047C9.46665 6.88047 5.33332 4.70713 2.49332 1.22713C2.37332 1.06713 2.15999 1.04047 2.01332 1.16047C1.98665 1.1738 1.97332 1.20047 1.94665 1.22713C1.39999 2.18713 1.10665 3.28047 1.09332 4.40047C1.07999 6.10713 1.75999 7.7338 2.97332 8.9338C2.46665 8.82713 1.98665 8.64046 1.54665 8.3738C1.38665 8.28047 1.17332 8.34713 1.07999 8.50713C1.03999 8.5738 1.02665 8.64046 1.03999 8.70713C1.01332 11.2005 2.45332 13.4805 4.71999 14.5338H4.59999C4.25332 14.5205 3.90665 14.4671 3.57332 14.3871C3.39999 14.3605 3.22665 14.4671 3.19999 14.6538C3.18665 14.7071 3.19999 14.7605 3.21332 14.8138C3.93332 17.0538 5.83998 18.7205 8.15998 19.1205C6.23998 20.4138 3.97332 21.0938 1.65332 21.0938H0.866652C0.599985 21.0805 0.373319 21.2938 0.359985 21.5605C0.359985 21.7471 0.453319 21.9338 0.626652 22.0138C3.27999 23.5605 6.30665 24.3738 9.37332 24.3605C11.9333 24.3871 14.4667 23.8538 16.8 22.7871C18.8667 21.8271 20.6933 20.4405 22.2 18.7338C23.64 17.0938 24.7733 15.2005 25.5333 13.1605C26.2666 11.2138 26.6533 9.14713 26.6667 7.0538V6.92046C26.6667 6.58713 26.8133 6.28047 27.0667 6.08046C28.0267 5.30713 28.8666 4.40047 29.56 3.3738C29.6666 3.22713 29.64 3.02713 29.5067 2.92047C29.4133 2.84047 29.2667 2.82713 29.16 2.8938L29.2267 2.84047Z" fill="#46A1C2"/>
</svg>
