<svg width="27" height="30" viewBox="0 0 27 30" fill="none" xmlns="http://www.w3.org/2000/svg">
<path d="M10.4273 12.6958C9.58247 12.6958 8.91687 13.3998 8.91687 14.283C8.91687 15.1662 9.59527 15.8702 10.4273 15.8702C11.2721 15.8702 11.9249 15.1662 11.9249 14.283C11.9505 13.3998 11.2721 12.6958 10.4273 12.6958ZM15.8161 12.6958C14.9713 12.6958 14.3057 13.3998 14.3057 14.283C14.3057 15.1662 14.9841 15.8702 15.8161 15.8702C16.6609 15.8702 17.3265 15.1662 17.3265 14.283C17.3265 13.3998 16.6353 12.6958 15.8161 12.6958Z" fill="#46A1C2"/>
<path d="M17.2881 19.3904C17.2881 19.3904 16.7505 18.7632 16.3153 18.2384C18.2481 17.7008 18.9905 16.536 18.9905 16.536C18.3889 16.9328 17.8129 17.2016 17.3009 17.3936C16.5585 17.7008 15.8545 17.88 15.1633 18.0208C13.7425 18.2768 12.4497 18.2128 11.3361 18.008C10.4913 17.8544 9.77446 17.6368 9.17286 17.3808C8.82726 17.2528 8.46885 17.0864 8.09766 16.8944C8.04646 16.8688 8.00805 16.856 7.96966 16.8176C7.94406 16.8048 7.91846 16.792 7.90566 16.792C7.63686 16.6512 7.49606 16.5488 7.49606 16.5488C7.49606 16.5488 8.20006 17.688 10.0817 18.2384C9.63366 18.7888 9.09606 19.4288 9.09606 19.4288C5.83206 19.3264 4.59046 17.24 4.59046 17.24C4.59046 12.6192 6.71526 8.86883 6.71526 8.86883C8.84006 7.32003 10.8497 7.35843 10.8497 7.35843L11.0033 7.53763C8.31526 8.25443 7.11205 9.40643 7.11205 9.40643C7.11205 9.40643 7.43205 9.24003 7.98246 8.99683C9.55686 8.31843 10.8113 8.13923 11.3361 8.08803C11.4257 8.07523 11.5025 8.06243 11.5921 8.06243C12.4881 7.94723 13.5121 7.92163 14.5745 8.03683C15.9697 8.19043 17.4801 8.60003 19.0161 9.40643C19.0161 9.40643 17.8513 8.31843 15.3425 7.57603L15.5473 7.34563C15.5473 7.34563 17.5697 7.30723 19.6817 8.85603C19.6817 8.85603 21.8065 12.6064 21.8065 17.2272C21.7809 17.2016 20.5521 19.288 17.2881 19.3904ZM22.9841 0.638428H3.20806C1.54406 0.638428 0.187256 1.96963 0.187256 3.60803V23.0128C0.187256 24.6512 1.54406 25.9824 3.20806 25.9824H19.9377L19.1569 23.3328L21.0513 25.0352L22.8305 26.6352L26.0177 29.3488V3.60803C26.0049 1.96963 24.6481 0.638428 22.9841 0.638428Z" fill="#46A1C2"/>
</svg>
