<svg width="32" height="28" viewBox="0 0 54 48" class="sc-bdfBQB gAGRtz mobile-icon" color="text" xmlns="http://www.w3.org/2000/svg">
<path d="M26.9401 48C22.8901 48 19.0801 46.42 16.2201 43.56L4.43006 31.78C-1.47994 25.87 -1.47994 16.25 4.43006 10.34L10.3201 4.45C13.1901 1.58 17.0001 0 21.0501 0H32.8301C36.8801 0 40.6901 1.58 43.5501 4.44L49.4401 10.33C55.3501 16.24 55.3501 25.86 49.4401 31.77L37.6601 43.56C34.8001 46.42 30.9901 48 26.9401 48ZM21.0501 4.76C18.2701 4.76 15.6601 5.84 13.7001 7.81L7.80006 13.7C3.75006 17.75 3.75006 24.35 7.80006 28.41L19.5801 40.19C21.5401 42.15 24.1601 43.24 26.9301 43.24C29.7101 43.24 32.3201 42.16 34.2801 40.19L46.0601 28.41C50.1101 24.36 50.1101 17.76 46.0601 13.7L40.1701 7.81C38.2101 5.85 35.5901 4.76 32.8201 4.76H21.0501Z" fill="#2C3851"></path><path d="M26.9399 40.92C24.5599 40.92 22.3099 39.99 20.6299 38.3L9.96986 27.65C6.48986 24.17 6.48986 18.51 9.96986 15.02L15.2999 9.69997C16.9899 8.00997 19.2299 7.08997 21.6099 7.08997H32.2599C34.6399 7.08997 36.8899 8.01997 38.5699 9.70997L43.8999 15.04C47.3799 18.52 47.3799 24.18 43.8999 27.67L33.2499 38.3C31.5699 39.99 29.3199 40.92 26.9399 40.92ZM21.6099 11.85C20.4999 11.85 19.4499 12.28 18.6699 13.07L13.3399 18.4C11.7199 20.02 11.7199 22.66 13.3399 24.29L23.9899 34.94C25.5599 36.51 28.3099 36.51 29.8799 34.94L40.5299 24.29C42.1499 22.67 42.1499 20.03 40.5299 18.4L35.1999 13.07C34.4099 12.28 33.3699 11.85 32.2599 11.85H21.6099Z" fill="#2C3851"></path><path d="M26.9402 33.9401L14.7202 21.7201L22.3902 14.0601H31.4902L39.1602 21.7201L26.9402 33.9401Z" fill="#12A79E"></path>
</svg>